<svg width="102" height="279" viewBox="0 0 102 279" fill="none" xmlns="http://www.w3.org/2000/svg">
<path d="M74.0788 140.044H28.2588L29.7588 116.814H72.0788L74.0788 140.044Z" fill="#1F2F4D"/>
<path d="M28.2588 139.764L26.8988 193.424C26.7388 198.274 30.6188 202.294 35.4688 202.294C39.8588 202.294 43.5388 198.974 43.9988 194.614L49.3888 141.234C50.0488 134.974 45.1388 129.524 38.8488 129.524C33.1288 129.524 28.4488 134.054 28.2488 139.774L28.2588 139.764Z" fill="#1F2F4D"/>
<path d="M26.9189 271.635L27.6289 246.595L37.5689 246.635L36.8689 271.645L26.9189 271.635Z" fill="white"/>
<path d="M38.729 267.564L40.6189 275.914H7.41895V275.674C7.41895 273.754 8.52895 271.994 10.2589 271.174L25.6689 265.024C26.2189 264.764 26.9389 264.774 27.3589 265.214C29.3489 267.314 31.5389 270.734 37.6189 267.024C38.0589 266.754 38.6389 267.054 38.7389 267.564H38.729Z" fill="#1F2F4D"/>
<path d="M7.41914 278.114H40.6191V275.924H7.41914V278.114Z" fill="white"/>
<path d="M27.359 276.974L24.459 270.864" stroke="white" stroke-width="1.9" stroke-miterlimit="10"/>
<path d="M22.9491 276.824L20.7891 272.274" stroke="white" stroke-width="1.9" stroke-miterlimit="10"/>
<path d="M43.9891 194.905L40.0591 259.965H24.0991L26.9191 193.705C27.0591 188.915 31.0991 185.165 35.8891 185.395C40.8291 185.635 44.5391 189.995 43.9791 194.905H43.9891Z" fill="#1F2F4D"/>
<path d="M73.9991 139.764L75.3591 193.424C75.5191 198.274 71.6391 202.294 66.7891 202.294C62.3991 202.294 58.7191 198.974 58.2591 194.614L52.8691 141.234C52.2091 134.974 57.1191 129.524 63.4091 129.524C69.1291 129.524 73.8091 134.054 74.0091 139.774L73.9991 139.764Z" fill="#1F2F4D"/>
<path d="M75.0392 271.635L74.3192 246.595L64.3892 246.635L65.0792 271.645L75.0392 271.635Z" fill="white"/>
<path d="M63.2191 267.564L61.3291 275.914H94.5291V275.674C94.5291 273.754 93.4191 271.994 91.6891 271.174L76.2791 265.024C75.7291 264.764 75.0091 264.774 74.5891 265.214C72.5991 267.314 70.4091 270.734 64.3291 267.024C63.8891 266.754 63.3091 267.054 63.2091 267.564H63.2191Z" fill="#1F2F4D"/>
<path d="M94.5389 275.914H61.3389V278.104H94.5389V275.914Z" fill="white"/>
<path d="M74.5889 276.974L77.4989 270.864" stroke="white" stroke-width="1.9" stroke-miterlimit="10"/>
<path d="M78.999 276.824L81.169 272.274" stroke="white" stroke-width="1.9" stroke-miterlimit="10"/>
<path d="M58.2791 194.905L62.2091 259.965H77.1991L75.3391 193.705C75.1991 188.915 71.1591 185.165 66.3691 185.395C61.4291 185.635 57.7191 189.995 58.2791 194.905Z" fill="#1F2F4D"/>
<path d="M11.759 159.084C11.009 157.234 10.039 156.614 10.039 156.614C10.429 154.904 9.30896 153.214 7.57896 152.924L6.35896 152.714C4.75896 152.444 3.22896 153.464 2.85896 155.044L2.83896 155.134C2.83896 155.134 0.588958 159.214 0.0889577 164.804C-0.561042 172.024 2.48896 175.684 4.74896 175.714C6.87896 175.744 8.07896 167.284 8.56896 164.144L9.88896 167.334C10.059 167.734 10.469 167.984 10.909 167.944C11.379 167.904 11.759 167.534 11.809 167.074L12.279 163.374C12.459 161.924 12.319 160.434 11.779 159.084H11.759Z" fill="#F3A396"/>
<path d="M10.0291 156.615L22.8491 115.095C23.9991 111.445 21.6591 107.625 17.8891 106.975C14.4791 106.395 11.2391 108.655 10.6191 112.055L2.84912 155.035L10.0291 156.605V156.615Z" fill="#F3A396"/>
<path d="M20.9088 62.0444C18.6288 73.4644 13.2088 99.8844 10.8088 111.534C10.1488 114.744 12.0688 117.924 15.2188 118.834C18.5588 119.794 22.0488 117.864 22.9988 114.524L37.0188 65.4244C38.0388 60.7944 34.9388 56.2544 30.2488 55.5244C25.8888 54.8444 21.7588 57.7144 20.8988 62.0444H20.9088Z" fill="#F3A396"/>
<path d="M39.7186 66.0746C39.7186 60.1946 34.9486 55.4346 29.0786 55.4346C23.8586 55.4346 19.5286 59.1846 18.6186 64.1346L14.0786 84.8846L34.7286 89.6746L39.2386 69.2646C39.5486 68.2646 39.7186 67.1946 39.7186 66.0846V66.0746Z" fill="#F4F4F2"/>
<mask id="mask0_1628_18860" style="mask-type:luminance" maskUnits="userSpaceOnUse" x="14" y="55" width="26" height="35">
<path d="M39.7186 66.0746C39.7186 60.1946 34.9486 55.4346 29.0786 55.4346C23.8586 55.4346 19.5286 59.1846 18.6186 64.1346L14.0786 84.8846L34.7286 89.6746L39.2386 69.2646C39.5486 68.2646 39.7186 67.1946 39.7186 66.0846V66.0746Z" fill="white"/>
</mask>
<g mask="url(#mask0_1628_18860)">
<path d="M-1.58154 74.4541L52.7885 85.9541" stroke="#FF7F2C" stroke-width="1.93" stroke-miterlimit="10"/>
<path d="M0.0786133 66.5938L54.4486 78.0938" stroke="#FF7F2C" stroke-width="1.93" stroke-miterlimit="10"/>
<path d="M1.74854 58.7441L56.1085 70.2441" stroke="#FF7F2C" stroke-width="1.93" stroke-miterlimit="10"/>
</g>
<path d="M89.5488 159.084C90.2988 157.234 91.2688 156.614 91.2688 156.614C90.8788 154.904 91.9988 153.214 93.7288 152.924L94.9488 152.714C96.5488 152.444 98.0788 153.464 98.4488 155.044L98.4688 155.134C98.4688 155.134 100.719 159.214 101.219 164.804C101.869 172.024 98.8188 175.684 96.5588 175.714C94.4288 175.744 93.2288 167.284 92.7388 164.144L91.4188 167.334C91.2488 167.734 90.8388 167.984 90.3988 167.944C89.9288 167.904 89.5488 167.534 89.4988 167.074L89.0288 163.374C88.8488 161.924 88.9888 160.434 89.5288 159.084H89.5488Z" fill="#F3A396"/>
<path d="M91.2689 156.615L78.4489 115.095C77.2989 111.445 79.639 107.625 83.409 106.975C86.819 106.395 90.059 108.655 90.679 112.055L98.4489 155.035L91.2689 156.605V156.615Z" fill="#F3A396"/>
<path d="M80.3987 62.0444C82.6787 73.4644 88.0987 99.8844 90.4987 111.534C91.1587 114.744 89.2387 117.924 86.0887 118.834C82.7487 119.794 79.2587 117.864 78.3087 114.524L64.2887 65.4244C63.2687 60.7944 66.3687 56.2544 71.0587 55.5244C75.4187 54.8444 79.5487 57.7144 80.4087 62.0444H80.3987Z" fill="#F3A396"/>
<path d="M61.5889 66.0746C61.5889 60.1946 66.3589 55.4346 72.2289 55.4346C77.4489 55.4346 81.7789 59.1846 82.6889 64.1346L87.2289 84.8846L66.5789 89.6746L62.0689 69.2646C61.7589 68.2646 61.5889 67.1946 61.5889 66.0846V66.0746Z" fill="#F4F4F2"/>
<mask id="mask1_1628_18860" style="mask-type:luminance" maskUnits="userSpaceOnUse" x="61" y="55" width="27" height="35">
<path d="M61.5889 66.0746C61.5889 60.1946 66.3589 55.4346 72.2289 55.4346C77.4489 55.4346 81.7789 59.1846 82.6889 64.1346L87.2289 84.8846L66.5789 89.6746L62.0689 69.2646C61.7589 68.2646 61.5889 67.1946 61.5889 66.0846V66.0746Z" fill="white"/>
</mask>
<g mask="url(#mask1_1628_18860)">
<path d="M102.879 74.4541L48.519 85.9541" stroke="#FF7F2C" stroke-width="1.93" stroke-miterlimit="10"/>
<path d="M101.219 66.5938L46.8589 78.0938" stroke="#FF7F2C" stroke-width="1.93" stroke-miterlimit="10"/>
<path d="M99.559 58.7441L45.189 70.2441" stroke="#FF7F2C" stroke-width="1.93" stroke-miterlimit="10"/>
</g>
<path d="M58.8391 48.7041L50.8891 48.8141L43.1591 48.7041L26.5991 55.7741L29.7591 116.814H50.8891H72.2391L75.3991 55.7741L58.8391 48.7041Z" fill="#F4F4F2"/>
<mask id="mask2_1628_18860" style="mask-type:luminance" maskUnits="userSpaceOnUse" x="26" y="48" width="50" height="69">
<path d="M58.8391 48.7041L50.8891 48.8141L43.1591 48.7041L26.5991 55.7741L29.7591 116.814H50.8891H72.2391L75.3991 55.7741L58.8391 48.7041Z" fill="white"/>
</mask>
<g mask="url(#mask2_1628_18860)">
<path d="M24.459 110.404H80.029" stroke="#FF7F2C" stroke-width="1.93" stroke-miterlimit="10"/>
<path d="M24.459 102.374H80.029" stroke="#FF7F2C" stroke-width="1.93" stroke-miterlimit="10"/>
<path d="M24.459 94.3438H80.029" stroke="#FF7F2C" stroke-width="1.93" stroke-miterlimit="10"/>
<path d="M24.459 86.3242H80.029" stroke="#FF7F2C" stroke-width="1.93" stroke-miterlimit="10"/>
<path d="M24.459 78.2939H80.029" stroke="#FF7F2C" stroke-width="1.93" stroke-miterlimit="10"/>
<path d="M24.459 70.2637H80.029" stroke="#FF7F2C" stroke-width="1.93" stroke-miterlimit="10"/>
<path d="M24.459 62.2344H80.029" stroke="#FF7F2C" stroke-width="1.93" stroke-miterlimit="10"/>
<path d="M24.459 54.2041H80.029" stroke="#FF7F2C" stroke-width="1.93" stroke-miterlimit="10"/>
</g>
<path d="M64.4891 51.0943L58.8791 48.6943L50.8991 48.8043L43.1691 48.6943L37.5591 51.0943C37.5591 51.0943 38.0091 58.0343 50.8991 58.1043C50.8991 58.1043 51.0691 58.1043 51.1091 58.1043C63.9991 58.0343 64.4991 51.0943 64.4991 51.0943H64.4891Z" fill="#F3A396"/>
<path d="M51.129 57.1942C46.339 57.1942 42.459 53.3142 42.459 48.5242V30.0742H59.799V48.5242C59.799 53.3142 55.919 57.1942 51.129 57.1942Z" fill="#F3A396"/>
<path d="M42.459 35.9341C42.459 35.9341 47.229 44.8041 52.679 44.3641C61.109 43.6941 59.709 33.2441 59.709 33.2441C59.709 33.2441 56.439 40.2141 51.269 40.2141C45.499 40.2141 42.459 35.9241 42.459 35.9241V35.9341Z" fill="#1A1A1A"/>
<path d="M38.1888 23.675L37.3288 14.905C36.2188 9.29496 40.5888 6.33496 44.4188 6.33496H57.6688C61.7288 6.33496 66.5588 9.27496 64.4988 15.595L63.3188 25.155L38.1988 23.675H38.1888Z" fill="#1A1A1A"/>
<path d="M62.4087 28.4749C65.0387 30.4149 69.5787 21.5949 67.0187 19.5049C64.4587 17.4149 62.7687 21.2449 62.7687 21.2449L62.7087 24.4849L62.3287 27.5249L62.1787 28.4649H62.4087V28.4749Z" fill="#F3A396"/>
<path d="M66.3086 22.1652C66.3086 22.1652 64.4086 21.5252 63.0586 24.3352" stroke="#D26665" stroke-width="0.52" stroke-linecap="round" stroke-linejoin="round"/>
<path d="M63.9785 22.9648C63.9785 22.9648 66.0485 24.0748 64.6785 25.7348" stroke="#D26665" stroke-width="0.52" stroke-linecap="round" stroke-linejoin="round"/>
<path d="M39.4788 28.4751C36.8488 30.4151 32.3088 21.595 34.8688 19.505C37.4288 17.415 39.0388 21.285 39.0388 21.285L39.1888 24.485L39.5688 27.5251L39.7088 28.465H39.4788V28.4751Z" fill="#F3A396"/>
<path d="M35.5786 22.1652C35.5786 22.1652 37.4786 21.5252 38.8286 24.3352" stroke="#D26665" stroke-width="0.52" stroke-linecap="round" stroke-linejoin="round"/>
<path d="M37.9088 22.9648C37.9088 22.9648 35.8388 24.0748 37.2088 25.7348" stroke="#D26665" stroke-width="0.52" stroke-linecap="round" stroke-linejoin="round"/>
<path d="M63.2789 17.1047C63.2789 22.5647 62.5489 27.2747 61.8289 30.6247C61.1189 33.8947 59.1189 36.7547 56.2989 38.6047L55.7889 38.9447C52.7989 40.8947 48.9489 40.9347 45.9089 39.0647C42.8489 37.1747 40.7089 34.1047 40.0489 30.5847C38.8489 24.1947 38.7189 17.1147 38.7189 17.1147C38.7189 17.1147 37.5789 3.32473 50.8189 3.59473C64.0589 3.86473 63.2689 17.1147 63.2689 17.1147L63.2789 17.1047Z" fill="#F3A396"/>
<path d="M63.4486 1.48469C59.2386 -1.49531 50.9286 0.59469 46.3986 2.66469C46.4886 1.31469 45.6586 1.46469 45.6586 1.46469C37.6886 3.60469 39.7786 9.88469 39.7786 9.88469C39.7786 9.88469 39.8086 9.90469 39.8586 9.92469C39.0286 11.7347 37.9486 15.5847 38.9686 22.5547C38.9686 22.5547 41.0786 15.0147 41.1386 10.5147C44.6786 12.0747 54.3686 15.8647 60.6886 13.7447C61.3086 17.5847 62.9686 22.5547 62.9686 22.5547C63.6286 18.0347 63.3486 14.8147 62.9086 12.6347C63.2986 12.3647 63.6686 12.0547 63.9986 11.7047C63.9986 11.7047 69.4186 5.70469 63.4486 1.48469Z" fill="#1A1A1A"/>
<path d="M49.8384 22.375V26.825C49.8384 26.975 49.8684 27.115 49.9184 27.245C50.1284 27.765 50.7184 28.005 51.2584 27.865L52.4184 27.555" stroke="#D26665" stroke-width="0.52" stroke-linecap="round" stroke-linejoin="round"/>
<path d="M45.4288 22.2844C46.0639 22.2844 46.5788 21.7695 46.5788 21.1344C46.5788 20.4992 46.0639 19.9844 45.4288 19.9844C44.7937 19.9844 44.2788 20.4992 44.2788 21.1344C44.2788 21.7695 44.7937 22.2844 45.4288 22.2844Z" fill="#1A1A1A"/>
<path d="M56.0685 22.2844C56.7036 22.2844 57.2185 21.7695 57.2185 21.1344C57.2185 20.4992 56.7036 19.9844 56.0685 19.9844C55.4333 19.9844 54.9185 20.4992 54.9185 21.1344C54.9185 21.7695 55.4333 22.2844 56.0685 22.2844Z" fill="#1A1A1A"/>
<path d="M47.5084 22.3945L44.6484 24.2845" stroke="#D26665" stroke-width="0.39" stroke-linecap="round" stroke-linejoin="round"/>
<path d="M54.2588 22.3848L56.7888 24.2948" stroke="#D26665" stroke-width="0.39" stroke-linecap="round" stroke-linejoin="round"/>
<path d="M47.6084 30.0742C47.6084 30.0742 48.4784 30.7442 50.7784 30.7442C52.8684 30.7442 54.1684 30.0742 54.1684 30.0742" stroke="#D26665" stroke-width="0.52" stroke-linecap="round" stroke-linejoin="round"/>
<path d="M50.8784 36.2646V37.5146" stroke="#D26665" stroke-width="0.39" stroke-linecap="round" stroke-linejoin="round"/>
<path d="M48.3484 18.5047L48.3884 16.2646L44.2284 16.3346C43.7084 16.3346 43.1984 16.5346 42.7984 16.8746L41.1484 18.7846L43.8984 18.3746L48.3484 18.5146V18.5047Z" fill="#1A1A1A"/>
<path d="M53.2085 18.5047L53.1685 16.2646L57.3285 16.3346C57.8485 16.3346 58.3585 16.5346 58.7585 16.8746L60.4185 18.7846L57.6685 18.3746L53.2185 18.5146L53.2085 18.5047Z" fill="#1A1A1A"/>
<path opacity="0.19" d="M62.0787 22.315C62.0787 25.065 59.8486 27.295 57.0986 27.295C54.3486 27.295 52.1187 25.065 52.1187 22.315C52.1187 19.565 54.3486 17.335 57.0986 17.335C59.8486 17.335 62.0787 19.565 62.0787 22.315Z" fill="white"/>
<path opacity="0.19" d="M49.8584 22.315C49.8584 25.065 47.6284 27.295 44.8784 27.295C42.1284 27.295 39.8984 25.065 39.8984 22.315C39.8984 19.565 42.1284 17.335 44.8784 17.335C47.6284 17.335 49.8584 19.565 49.8584 22.315Z" fill="white"/>
<path d="M49.8584 22.315C49.8584 25.065 47.6284 27.295 44.8784 27.295C42.1284 27.295 39.8984 25.065 39.8984 22.315C39.8984 19.565 42.1284 17.335 44.8784 17.335C47.6284 17.335 49.8584 19.565 49.8584 22.315Z" stroke="#1A1A1A" stroke-width="0.33" stroke-linecap="round" stroke-linejoin="round"/>
<path d="M62.0787 22.315C62.0787 25.065 59.8486 27.295 57.0986 27.295C54.3486 27.295 52.1187 25.065 52.1187 22.315C52.1187 19.565 54.3486 17.335 57.0986 17.335C59.8486 17.335 62.0787 19.565 62.0787 22.315Z" stroke="#1A1A1A" stroke-width="0.33" stroke-linecap="round" stroke-linejoin="round"/>
<path d="M49.8584 22.3151C49.8584 22.3151 51.0384 21.2151 52.1284 22.3151" stroke="#1A1A1A" stroke-width="0.33" stroke-linecap="round" stroke-linejoin="round"/>
<path d="M39.8986 22.3154H39.0786" stroke="#1A1A1A" stroke-width="0.33" stroke-miterlimit="10"/>
<path d="M63.0585 22.3154H62.2285" stroke="#1A1A1A" stroke-width="0.33" stroke-miterlimit="10"/>
<path d="M42.4194 30.3818H59.9328V49.02C59.9328 53.8553 56.0114 57.7766 51.1761 57.7766C46.3408 57.7766 42.4194 53.8553 42.4194 49.02V30.3818Z" fill="#F3A396"/>
<path d="M42.4194 36.3033C42.4194 36.3033 47.2391 45.2631 52.7462 44.8178C61.2607 44.1382 59.8468 33.5928 59.8468 33.5928C59.8468 33.5928 56.5426 40.6309 51.3245 40.6387C45.4972 40.6387 42.4194 36.3033 42.4194 36.3033Z" fill="#1F2F4D"/>
<path d="M38.115 23.9205L37.2401 15.0623C36.1152 9.39901 40.5365 6.40723 44.3954 6.40723H57.7764C61.8775 6.40723 66.7518 9.37558 64.6739 15.7654L63.4788 25.4203L38.1072 23.9283L38.115 23.9205Z" fill="#1A1A1A"/>
<path d="M62.5805 28.7718C65.2286 30.7325 69.8218 21.8196 67.2362 19.7106C64.6506 17.6015 62.9399 21.4681 62.9399 21.4681L62.8774 24.7411L62.4946 27.811L62.3462 28.7562L62.5727 28.7718H62.5805Z" fill="#F3A396"/>
<path d="M66.5172 22.3972C66.5172 22.3972 64.5955 21.7567 63.2285 24.5844" stroke="#D26665" stroke-width="0.67" stroke-linecap="round" stroke-linejoin="round"/>
<path d="M64.166 23.2012C64.166 23.2012 66.2595 24.3182 64.8768 25.9977" stroke="#D26665" stroke-width="0.67" stroke-linecap="round" stroke-linejoin="round"/>
<path d="M39.4194 28.7712C36.7713 30.7318 32.1782 21.819 34.7638 19.7099C37.3494 17.6008 38.9742 21.5065 38.9742 21.5065L39.1226 24.7405L39.5053 27.8104L39.6538 28.7556L39.4272 28.7712H39.4194Z" fill="#F3A396"/>
<path d="M35.4746 22.3953C35.4746 22.3953 37.3962 21.7547 38.7632 24.5825" stroke="#D26665" stroke-width="0.67" stroke-linecap="round" stroke-linejoin="round"/>
<path d="M37.8335 23.1992C37.8335 23.1992 35.74 24.3163 37.1226 25.9957" stroke="#D26665" stroke-width="0.67" stroke-linecap="round" stroke-linejoin="round"/>
<path d="M63.4476 17.2814C63.4476 22.7963 62.7133 27.5613 61.9791 30.9359C61.2604 34.2401 59.245 37.1304 56.3939 38.9895L55.8783 39.3254C52.8631 41.2939 48.9652 41.3407 45.9031 39.4425C42.8175 37.5287 40.6538 34.4276 39.9898 30.8812C38.779 24.4289 38.6462 17.2736 38.6462 17.2736C38.6462 17.2736 37.4979 3.34581 50.8711 3.61921C64.2444 3.89261 63.4476 17.2736 63.4476 17.2736V17.2814Z" fill="#F3A396"/>
<path d="M63.6272 1.50207C59.3778 -1.50534 50.9804 0.595936 46.4029 2.69722C46.4967 1.33021 45.6608 1.47863 45.6608 1.47863C37.615 3.64241 39.7241 9.98531 39.7241 9.98531C39.7241 9.98531 39.7554 10.0009 39.8022 10.0244C38.9586 11.8522 37.8728 15.7345 38.9039 22.7805C38.9039 22.7805 41.0364 15.1643 41.0989 10.618C44.6688 12.1959 54.4565 16.0236 60.8385 13.8832C61.4712 17.7655 63.1429 22.7805 63.1429 22.7805C63.8147 18.2186 63.5334 14.9612 63.0804 12.7662C63.4709 12.4928 63.8459 12.1881 64.1896 11.8288C64.1896 11.8288 69.6576 5.76712 63.635 1.50988L63.6272 1.50207Z" fill="#1A1A1A"/>
<path d="M49.8789 22.6172V27.1088C49.8789 27.2572 49.9102 27.4056 49.9649 27.5384C50.1758 28.0618 50.7694 28.3117 51.3162 28.1633L52.4801 27.8509" stroke="#D26665" stroke-width="0.67" stroke-linecap="round" stroke-linejoin="round"/>
<path d="M46.5827 21.3582C46.5827 21.9988 46.0593 22.5222 45.4188 22.5222C44.7782 22.5222 44.2549 21.9988 44.2549 21.3582C44.2549 20.7177 44.7782 20.1943 45.4188 20.1943C46.0593 20.1943 46.5827 20.7177 46.5827 21.3582Z" fill="#1A1A1A"/>
<path d="M57.3386 21.3582C57.3386 21.9988 56.8152 22.5222 56.1747 22.5222C55.5341 22.5222 55.0107 21.9988 55.0107 21.3582C55.0107 20.7177 55.5341 20.1943 56.1747 20.1943C56.8152 20.1943 57.3386 20.7177 57.3386 21.3582Z" fill="#1A1A1A"/>
<path d="M47.5275 22.6318L44.6372 24.5378" stroke="#D26665" stroke-width="0.51" stroke-linecap="round" stroke-linejoin="round"/>
<path d="M54.3467 22.624L56.901 24.5456" stroke="#D26665" stroke-width="0.51" stroke-linecap="round" stroke-linejoin="round"/>
<path d="M47.6284 30.3809H54.2603" stroke="#D26665" stroke-width="0.67" stroke-linecap="round" stroke-linejoin="round"/>
<path d="M50.9258 36.6377V37.8953" stroke="#D26665" stroke-width="0.51" stroke-linecap="round" stroke-linejoin="round"/>
<path d="M48.3711 17.695L48.418 15.4297L44.2154 15.5078C43.6842 15.5156 43.1765 15.7109 42.7703 16.0468L41.0986 17.9684L43.8795 17.5544L48.3711 17.695Z" fill="#1A1A1A"/>
<path d="M53.2851 17.695L53.2383 15.4297L57.4408 15.5078C57.972 15.5156 58.4798 15.7109 58.8859 16.0468L60.5576 17.9684L57.7767 17.5544L53.2851 17.695Z" fill="#1A1A1A"/>
<path opacity="0.19" d="M62.2364 22.556C62.2364 25.329 59.9867 27.5787 57.2137 27.5787C54.4406 27.5787 52.1909 25.329 52.1909 22.556C52.1909 19.7829 54.4406 17.5332 57.2137 17.5332C59.9867 17.5332 62.2364 19.7829 62.2364 22.556Z" fill="white"/>
<path opacity="0.19" d="M49.8942 22.556C49.8942 25.329 47.6445 27.5787 44.8714 27.5787C42.0983 27.5787 39.8486 25.329 39.8486 22.556C39.8486 19.7829 42.0983 17.5332 44.8714 17.5332C47.6445 17.5332 49.8942 19.7829 49.8942 22.556Z" fill="white"/>
<path d="M49.8942 22.556C49.8942 25.329 47.6445 27.5787 44.8714 27.5787C42.0983 27.5787 39.8486 25.329 39.8486 22.556C39.8486 19.7829 42.0983 17.5332 44.8714 17.5332C47.6445 17.5332 49.8942 19.7829 49.8942 22.556Z" stroke="#1A1A1A" stroke-width="0.43" stroke-linecap="round" stroke-linejoin="round"/>
<path d="M62.2364 22.556C62.2364 25.329 59.9867 27.5787 57.2137 27.5787C54.4406 27.5787 52.1909 25.329 52.1909 22.556C52.1909 19.7829 54.4406 17.5332 57.2137 17.5332C59.9867 17.5332 62.2364 19.7829 62.2364 22.556Z" stroke="#1A1A1A" stroke-width="0.43" stroke-linecap="round" stroke-linejoin="round"/>
<path d="M49.894 22.5565C49.894 22.5565 51.0814 21.4472 52.1906 22.5565" stroke="#1A1A1A" stroke-width="0.43" stroke-linecap="round" stroke-linejoin="round"/>
<path d="M39.8407 22.5566H39.0049" stroke="#1A1A1A" stroke-width="0.43" stroke-miterlimit="10"/>
<path d="M63.2284 22.5566H62.3926" stroke="#1A1A1A" stroke-width="0.43" stroke-miterlimit="10"/>
</svg>
